<svg width="1512" height="1566" viewBox="0 0 1512 1566" fill="none" xmlns="http://www.w3.org/2000/svg">
<g id="background-lines">
<rect id="r1" width="1506" height="10" transform="matrix(-1 0 0 1 1506 763)" fill="url(#gradient1)"/>
<rect id="r2" x="2.17737" y="726.254" width="1499.1" height="10" transform="rotate(3 2.17737 726.254)" fill="url(#gradient1)"/>
<rect id="r60" width="1455.26" height="10" transform="matrix(-0.99863 0.052336 0.052336 0.99863 1511.03 725.162)" fill="url(#gradient1)"/>
<rect id="r3" x="2.37878" y="688.851" width="1496.17" height="10" transform="rotate(6 2.37878 688.851)" fill="url(#gradient1)"/>
<rect id="r59" width="1457.89" height="10" transform="matrix(-0.994522 0.104528 0.104528 0.994522 1507.71 686.989)" fill="url(#gradient1)"/>
<rect id="r4" x="7.93738" y="652.016" width="1490.06" height="10" transform="rotate(9 7.93738 652.016)" fill="url(#gradient1)"/>
<rect id="r58" width="1479.38" height="10" transform="matrix(-0.987688 0.156434 0.156434 0.987688 1505.97 648.604)" fill="url(#gradient1)"/>
<rect id="r5" x="14.6425" y="615.382" width="1490.05" height="10" transform="rotate(12 14.6425 615.382)" fill="url(#gradient1)"/>
<rect id="r57" width="1482.8" height="10" transform="matrix(-0.978148 0.207912 0.207912 0.978148 1500.41 610.558)" fill="url(#gradient1)"/>
<rect id="r6" x="11.5062" y="575.981" width="1500.4" height="10" transform="rotate(15 11.5062 575.981)" fill="url(#gradient1)"/>
<rect id="r56" width="1504.77" height="10" transform="matrix(-0.965926 0.258819 0.258819 0.965926 1495.11 572.163)" fill="url(#gradient1)"/>
<rect id="r7" x="3.71899" y="533.157" width="1519.58" height="10" transform="rotate(18 3.71899 533.157)" fill="url(#gradient1)"/>
<rect id="r55" width="1514.85" height="10" transform="matrix(-0.951056 0.309017 0.309017 0.951056 1485.45 534.196)" fill="url(#gradient1)"/>
<rect id="r8" x="21.4672" y="497.807" width="1509.41" height="10" transform="rotate(21 21.4672 497.807)" fill="url(#gradient1)"/>
<rect id="r54" width="1522.18" height="10" transform="matrix(-0.93358 0.358368 0.358368 0.93358 1473.33 496.874)" fill="url(#gradient1)"/>
<rect id="r9" x="29.0674" y="458.37" width="1516.5" height="10" transform="rotate(24 29.0674 458.37)" fill="url(#gradient1)"/>
<rect id="r53" width="1559.75" height="10" transform="matrix(-0.913545 0.406737 0.406737 0.913545 1463.3 458.37)" fill="url(#gradient1)"/>
<rect id="r10" x="46.0944" y="423.28" width="1514.56" height="10" transform="rotate(27 46.0944 423.28)" fill="url(#gradient1)"/>
<rect id="r52" width="1578.83" height="10" transform="matrix(-0.891006 0.45399 0.45399 0.891006 1446.27 423.28)" fill="url(#gradient1)"/>
<rect id="r11" x="64.9346" y="389.129" width="1514.55" height="10" transform="rotate(30 64.9346 389.129)" fill="url(#gradient1)"/>
<rect id="r51" width="1603.58" height="10" transform="matrix(-0.866025 0.5 0.5 0.866025 1427.43 389.129)" fill="url(#gradient1)"/>
<rect id="r12" x="85.5363" y="356.011" width="1514.93" height="10" transform="rotate(33 85.5363 356.011)" fill="url(#gradient1)"/>
<rect id="r50" width="1620.25" height="10" transform="matrix(-0.83867 0.544639 0.544639 0.83867 1406.83 356.011)" fill="url(#gradient1)"/>
<rect id="r13" x="109.209" y="322.029" width="1513.98" height="10" transform="rotate(36 109.209 322.029)" fill="url(#gradient1)"/>
<rect id="r49" width="1582.06" height="10" transform="matrix(-0.809017 0.587785 0.587785 0.809017 1383.16 322.029)" fill="url(#gradient1)"/>
<rect id="r14" x="134.628" y="289.333" width="1513.44" height="10" transform="rotate(39 134.628 289.333)" fill="url(#gradient1)"/>
<rect id="r48" width="1582.06" height="10" transform="matrix(-0.777146 0.62932 0.62932 0.777146 1357.74 289.333)" fill="url(#gradient1)"/>
<rect id="r15" x="161.723" y="258.012" width="1513.03" height="10" transform="rotate(42 161.723 258.012)" fill="url(#gradient1)"/>
<rect id="r47" width="1582.06" height="10" transform="matrix(-0.743145 0.669131 0.669131 0.743145 1330.64 258.012)" fill="url(#gradient1)"/>
<rect id="r16" x="190.42" y="228.152" width="1512.12" height="10" transform="rotate(45 190.42 228.152)" fill="url(#gradient1)"/>
<rect id="r46" width="1582.06" height="10" transform="matrix(-0.707107 0.707107 0.707107 0.707107 1301.94 228.152)" fill="url(#gradient1)"/>
<rect id="r17" x="220.64" y="199.835" width="1509.32" height="10" transform="rotate(48 220.64 199.835)" fill="url(#gradient1)"/>
<rect id="r45" width="1582.06" height="10" transform="matrix(-0.669131 0.743145 0.743145 0.669131 1271.72 199.835)" fill="url(#gradient1)"/>
<rect id="r18" x="252.301" y="173.138" width="1507.55" height="10" transform="rotate(51 252.301 173.138)" fill="url(#gradient1)"/>
<rect id="r44" width="1582.06" height="10" transform="matrix(-0.62932 0.777146 0.777146 0.62932 1240.06 173.138)" fill="url(#gradient1)"/>
<rect id="r19" x="285.316" y="148.135" width="1504.37" height="10" transform="rotate(54 285.316 148.135)" fill="url(#gradient1)"/>
<rect id="r43" width="1582.06" height="10" transform="matrix(-0.587785 0.809017 0.809017 0.587785 1207.05 148.135)" fill="url(#gradient1)"/>
<rect id="r20" x="319.594" y="124.893" width="1498.91" height="10" transform="rotate(57 319.594 124.893)" fill="url(#gradient1)"/>
<rect id="r42" width="1582.06" height="10" transform="matrix(-0.544639 0.83867 0.83867 0.544639 1172.77 124.893)" fill="url(#gradient1)"/>
<rect id="r21" x="355.042" y="103.478" width="1498.09" height="10" transform="rotate(60 355.042 103.478)" fill="url(#gradient1)"/>
<rect id="r41" width="1582.06" height="10" transform="matrix(-0.5 0.866025 0.866025 0.5 1137.32 103.478)" fill="url(#gradient1)"/>
<rect id="r22" x="391.561" y="83.9473" width="1493.29" height="10" transform="rotate(63 391.561 83.9473)" fill="url(#gradient1)"/>
<rect id="r40" width="1582.06" height="10" transform="matrix(-0.45399 0.891006 0.891006 0.45399 1100.8 83.9473)" fill="url(#gradient1)"/>
<rect id="r23" x="429.053" y="66.3545" width="1489.78" height="10" transform="rotate(66 429.053 66.3545)" fill="url(#gradient1)"/>
<rect id="r39" width="1582.06" height="10" transform="matrix(-0.406737 0.913545 0.913545 0.406737 1063.31 66.3545)" fill="url(#gradient1)"/>
<rect id="r24" x="467.415" y="50.748" width="1484.55" height="10" transform="rotate(69 467.415 50.748)" fill="url(#gradient1)"/>
<rect id="r38" width="1582.06" height="10" transform="matrix(-0.358368 0.93358 0.93358 0.358368 1024.95 50.748)" fill="url(#gradient1)"/>
<rect id="r25" x="506.54" y="37.1707" width="1481.35" height="10" transform="rotate(72 506.54 37.1707)" fill="url(#gradient1)"/>
<rect id="r37" width="1582.06" height="10" transform="matrix(-0.309017 0.951056 0.951056 0.309017 985.824 37.1707)" fill="url(#gradient1)"/>
<rect id="r26" x="546.323" y="25.6597" width="1478.54" height="10" transform="rotate(75 546.323 25.6597)" fill="url(#gradient1)"/>
<rect id="r36" width="1582.06" height="10" transform="matrix(-0.258819 0.965926 0.965926 0.258819 946.042 25.6597)" fill="url(#gradient1)"/>
<rect id="r27" x="586.653" y="16.2463" width="1475.74" height="10" transform="rotate(78 586.653 16.2463)" fill="url(#gradient1)"/>
<rect id="r35" width="1582.06" height="10" transform="matrix(-0.207912 0.978148 0.978148 0.207912 905.711 16.2463)" fill="url(#gradient1)"/>
<rect id="r28" x="627.421" y="8.95679" width="1470.1" height="10" transform="rotate(81 627.421 8.95679)" fill="url(#gradient1)"/>
<rect id="r34" width="1473.86" height="10" transform="matrix(-0.156434 0.987688 0.987688 0.156434 864.944 8.95679)" fill="url(#gradient1)"/>
<rect id="r29" x="668.514" y="3.81079" width="1470.58" height="10" transform="rotate(84 668.514 3.81079)" fill="url(#gradient1)"/>
<rect id="r33" width="1472.7" height="10" transform="matrix(-0.104528 0.994522 0.994522 0.104528 823.85 3.81079)" fill="url(#gradient1)"/>
<rect id="r30" x="709.82" y="0.822388" width="1472.23" height="10" transform="rotate(87 709.82 0.822388)" fill="url(#gradient1)"/>
<rect id="r32" width="1469.43" height="10" transform="matrix(-0.052336 0.99863 0.99863 0.052336 782.544 0.822388)" fill="url(#gradient1)"/>
<rect id="r31" width="1472" height="10" transform="matrix(0 1 1 0 741 0)" fill="url(#gradient1)"/>
</g>
</svg>
