<svg width="80" height="80" viewBox="0 0 80 80" fill="none" xmlns="http://www.w3.org/2000/svg">
<circle cx="40" cy="40" r="40" fill="url(#paint0_radial_3_36)"/>
<path fill-rule="evenodd" clip-rule="evenodd" d="M37.6826 0.000866759H42.3097C48.9796 0.514462 54.3429 2.33472 59.1016 4.76124C51.4656 12.7288 43.665 20.5296 35.6991 28.1651C33.3238 25.0879 30.728 22.6189 25.1225 23.1413C19.6441 23.6518 15.5159 28.5732 15.4705 33.9838C15.3961 42.8648 25.5791 47.926 33.0551 42.9761C35.0191 41.676 36.8215 39.4734 38.6079 37.6868C43.9342 32.3591 49.3032 26.9069 54.6051 21.5537C58.9819 25.4958 63.1697 29.9879 67.5617 34.3804C68.0208 34.8396 69.4057 35.9134 69.413 36.099C69.4299 36.5014 66.5562 39.0897 66.2394 39.4051C63.0113 42.6336 59.7363 45.9348 56.4554 48.9262C54.1794 44.14 46.4035 42.4424 41.3836 45.4883C38.3164 47.3492 36.3547 50.3368 36.2268 54.4799C36.05 60.1806 40.1109 65.1371 45.7467 65.7185C53.56 66.5258 56.7346 60.9427 60.5546 57.1242C66.9882 50.6899 73.6699 43.9828 79.9905 37.9522C80.2368 51.0669 75.684 60.5259 69.2799 67.1746C62.8664 73.8329 54.3367 79.1599 42.3081 80H37.681C26.4625 79.015 17.8185 74.5499 11.6346 68.3641C5.45129 62.179 0.979993 53.5392 0 42.3146V37.686C0.649475 26.8695 5.74556 17.6025 11.7672 11.6366C18.1456 5.31663 26.6625 0.871426 37.681 0L37.6826 0.000866759Z" fill="black"/>
<defs>
<radialGradient id="paint0_radial_3_36" cx="0" cy="0" r="1" gradientUnits="userSpaceOnUse" gradientTransform="translate(48.25 40) rotate(75.3601) scale(105.596 126.964)">
<stop stop-color="#18ADEC"/>
<stop offset="1" stop-color="#045578"/>
</radialGradient>
</defs>
</svg>
