<svg width="26" height="26" viewBox="0 0 26 26" fill="none" xmlns="http://www.w3.org/2000/svg">
<path fill-rule="evenodd" clip-rule="evenodd" d="M21.9401 8.45683V20.1129C21.9401 22.1316 20.3021 23.7696 18.2835 23.7696C16.2648 23.7696 14.6268 22.1315 14.6268 20.1129C14.6268 18.0942 16.2648 16.4562 18.2835 16.4562C18.711 16.4562 19.1213 16.5293 19.502 16.6642V8.88069L7.31337 10.6216V21.9407C7.31337 23.9594 5.67531 25.5973 3.65669 25.5973C1.63806 25.5973 0 23.9593 0 21.9407C0 19.922 1.63806 18.284 3.65669 18.284C4.0842 18.284 4.49457 18.3571 4.87523 18.492V6.59016C4.87523 6.30553 5.08442 6.06435 5.36561 6.02433L17.2514 4.32684C17.5291 5.13387 18.295 5.71456 19.1969 5.71456H19.8828V6.40041C19.8828 7.53666 20.8041 8.45684 21.9392 8.45684L21.9401 8.45683Z" fill="black"/>
<path fill-rule="evenodd" clip-rule="evenodd" d="M21.0266 2.74343V0.914476C21.0266 0.409222 21.4359 0 21.9411 0C22.4464 0 22.8556 0.409222 22.8556 0.914476V2.74343H24.6845C25.1898 2.74343 25.599 3.15265 25.599 3.65791C25.599 4.16316 25.1898 4.57238 24.6845 4.57238H22.8556V6.40134C22.8556 6.90659 22.4464 7.31581 21.9411 7.31581C21.4359 7.31581 21.0266 6.90659 21.0266 6.40134V4.57238H19.1977C18.6924 4.57238 18.2832 4.16316 18.2832 3.65791C18.2832 3.15265 18.6924 2.74343 19.1977 2.74343H21.0266Z" fill="black"/>
</svg>
