<svg width="28" height="28" viewBox="0 0 28 28" fill="none" xmlns="http://www.w3.org/2000/svg">
<circle cx="14" cy="14" r="14" fill="url(#paint0_radial_6_239)"/>
<path fill-rule="evenodd" clip-rule="evenodd" d="M13.1889 0.000303366H14.8084C17.1429 0.180062 19.02 0.817151 20.6855 1.66643C18.013 4.45507 15.2828 7.18536 12.4947 9.85778C11.6633 8.78078 10.7548 7.91661 8.79287 8.09947C6.87544 8.27813 5.43056 10.0006 5.41469 11.8943C5.38862 15.0027 8.9527 16.7741 11.5693 15.0416C12.2567 14.5866 12.8875 13.8157 13.5128 13.1904C15.377 11.3257 17.2561 9.41743 19.1118 7.5438C20.6437 8.92353 22.1094 10.4958 23.6466 12.0331C23.8073 12.1938 24.292 12.5697 24.2946 12.6347C24.3005 12.7755 23.2947 13.6814 23.1838 13.7918C22.0539 14.9218 20.9077 16.0772 19.7594 17.1242C18.9628 15.449 16.2412 14.8548 14.4842 15.9209C13.4107 16.5722 12.7241 17.6179 12.6794 19.068C12.6175 21.0632 14.0388 22.798 16.0114 23.0015C18.746 23.284 19.8571 21.3299 21.1941 19.9935C23.4459 17.7415 25.7844 15.394 27.9967 13.2833C28.0829 17.8734 26.4894 21.1841 24.248 23.5111C22.0032 25.8415 19.0178 27.706 14.8078 28H13.1884C9.26186 27.6553 6.23649 26.0925 4.0721 23.9274C1.90795 21.7627 0.342997 18.7387 0 14.8101V13.1901C0.227316 9.40434 2.01094 6.16089 4.11854 4.0728C6.35096 1.86082 9.33186 0.304999 13.1884 0L13.1889 0.000303366Z" fill="white"/>
<defs>
<radialGradient id="paint0_radial_6_239" cx="0" cy="0" r="1" gradientUnits="userSpaceOnUse" gradientTransform="translate(16.8875 14) rotate(75.3601) scale(36.9587 44.4373)">
<stop stop-color="#18ADEC"/>
<stop offset="1" stop-color="#045578"/>
</radialGradient>
</defs>
</svg>
